<?xml version="1.0" encoding="UTF-8"?>
<svg width="290px" height="64px" viewBox="0 0 290 64" version="1.1" xmlns="http://www.w3.org/2000/svg" xmlns:xlink="http://www.w3.org/1999/xlink">
    <!-- Generator: Sketch 40.3 (33839) - http://www.bohemiancoding.com/sketch -->
    <title>MJ-factcheck-MOBILE-logo-OL-fnl</title>
    <desc>Created with Sketch.</desc>
    <defs>
        <polygon id="path-1" points="0.06 0.725 0.06 51.861 49.419 51.861 49.419 0.725 0.06 0.725"></polygon>
    </defs>
    <g id="Page-1" stroke="none" stroke-width="1" fill="none" fill-rule="evenodd">
        <g id="MJ-factcheck-MOBILE-logo-OL-fnl">
            <polyline id="Fill-1" fill="#FFFFFF" points="45.096 61.275 41.286 62.666 40.865 61.514 43.423 60.579 43.002 59.425 40.636 60.29 40.214 59.136 42.58 58.272 41.771 56.061 43.022 55.605 45.096 61.275"></polyline>
            <path d="M37.267,61.733 L37.668,59.759 L36.213,60.013 L37.267,61.733 L37.267,61.733 Z M38.075,63.375 L36.99,63.564 L33.36,58.071 L34.84,57.812 L35.573,58.982 L37.886,58.579 L38.162,57.231 L39.609,56.979 L38.075,63.375 L38.075,63.375 Z" id="Fill-2" fill="#FFFFFF"></path>
            <polyline id="Fill-3" fill="#FFFFFF" points="32.608 64 31.276 63.972 31.377 59.164 28.91 59.113 28.935 57.885 32.734 57.964 32.608 64"></polyline>
            <path d="M24.416,61.701 C24.575,62.009 24.971,62.215 25.289,62.276 C25.658,62.346 26.202,62.276 26.287,61.832 C26.493,60.752 23.626,60.926 24.023,58.849 C24.276,57.525 25.462,57.1 26.686,57.334 C27.449,57.479 28.077,57.833 28.54,58.46 L27.414,59.304 C27.212,58.902 26.816,58.609 26.38,58.526 C25.952,58.444 25.435,58.554 25.356,58.972 C25.148,60.061 28.045,60.006 27.666,61.982 C27.425,63.247 26.199,63.7 25.034,63.477 C24.362,63.349 23.75,63.05 23.332,62.51 L24.416,61.701" id="Fill-4" fill="#FFFFFF"></path>
            <polyline id="Fill-5" fill="#FFFFFF" points="21.709 62.547 17.857 61.126 18.283 59.974 20.886 60.934 21.277 59.879 18.817 58.971 19.244 57.821 21.702 58.727 22.129 57.576 19.381 56.562 19.808 55.411 23.804 56.885 21.709 62.547"></polyline>
            <polyline id="Fill-6" fill="#FFFFFF" points="22.091 3.497 20.442 4 20.098 2.874 24.668 1.478 25.012 2.604 23.363 3.108 24.786 7.759 23.513 8.147 22.091 3.497"></polyline>
            <path d="M27.897,3.495 L28.678,3.405 C29.161,3.35 29.787,3.26 29.711,2.607 C29.641,2.006 29.088,1.976 28.604,2.031 L27.739,2.132 L27.897,3.495 L27.897,3.495 Z M26.286,1.167 L28.61,0.898 C29.84,0.755 30.923,1.058 31.086,2.456 C31.183,3.295 30.809,4 29.979,4.25 L31.799,6.607 L30.214,6.79 L28.68,4.538 L28.027,4.614 L28.305,7.011 L26.983,7.165 L26.286,1.167 L26.286,1.167 Z" id="Fill-7" fill="#FFFFFF"></path>
            <path d="M37.401,4.82 C37.287,6.239 36.335,7.223 34.667,7.088 C32.991,6.951 32.208,5.828 32.322,4.408 L32.618,0.711 L33.945,0.819 L33.653,4.464 C33.594,5.204 34.059,5.806 34.765,5.864 C35.463,5.921 36.019,5.4 36.078,4.661 L36.37,1.016 L37.697,1.124 L37.401,4.82" id="Fill-8" fill="#FFFFFF"></path>
            <polyline id="Fill-9" fill="#FFFFFF" points="39.787 1.431 43.738 2.556 43.402 3.738 40.733 2.977 40.425 4.06 42.947 4.778 42.611 5.96 40.09 5.241 39.754 6.423 42.572 7.225 42.236 8.406 38.137 7.239 39.787 1.431"></polyline>
            <path d="M54.953,32.356 C54.953,45.019 44.687,55.285 32.024,55.285 C19.36,55.285 9.094,45.019 9.094,32.356 C9.094,19.692 19.36,9.426 32.024,9.426 C44.687,9.426 54.953,19.692 54.953,32.356" id="Fill-10" fill="#61A3B8"></path>
            <path d="M51.455,32.356 C51.455,42.98 42.648,51.787 32.024,51.787 C21.292,51.787 12.592,43.088 12.592,32.356 C12.592,21.624 21.292,12.924 32.024,12.924 C42.756,12.924 51.455,21.624 51.455,32.356" id="Fill-11" fill="#FFFFFF"></path>
            <g id="Group-15" transform="translate(0.000000, 4.000000)">
                <mask id="mask-2" fill="white">
                    <use xlink:href="#path-1"></use>
                </mask>
                <g id="Clip-13"></g>
                <path d="M46.962,29.085 C47.908,28.588 48.637,27.747 49.419,27.109 C48.417,27.804 47.344,27.589 46.489,28.196 L46.489,27.801 C46.146,27.903 45.921,28.128 45.638,28.294 C45.548,28.11 45.922,27.964 45.638,27.9 C45.305,28.144 44.969,28.384 44.599,28.591 C44.521,28.312 44.733,28.335 44.694,28.097 C44.239,28.216 44.121,28.683 43.653,28.789 C43.639,28.673 43.67,28.508 43.559,28.492 C43.269,28.651 43.179,29.017 42.803,29.085 C42.789,28.969 42.819,28.804 42.708,28.789 C42.485,29.048 42.333,29.383 41.952,29.48 C41.936,29.332 41.985,29.116 41.857,29.085 C41.683,29.462 41.204,29.521 41.007,29.874 C40.992,29.758 41.023,29.594 40.913,29.578 C40.555,29.786 40.22,30.432 39.873,30.073 C39.736,30.383 39.489,30.856 39.21,30.467 C39.059,30.752 38.68,31.464 38.455,31.059 C38.304,31.681 37.864,31.395 37.604,31.85 C37.588,31.702 37.637,31.486 37.509,31.456 C37.031,31.789 36.704,32.882 36.124,32.56 C36.098,32.499 36.07,32.439 36.039,32.379 C36.282,32.152 36.561,31.936 36.942,31.752 C36.831,31.735 36.674,31.769 36.659,31.653 C37.271,31.502 37.62,31.077 38.265,30.961 C38.417,30.572 37.858,30.927 37.888,30.665 C38.203,30.264 38.955,29.968 38.738,29.48 C39.063,29.261 39.574,29.232 39.684,28.789 C39.572,28.772 39.415,28.805 39.4,28.689 C39.728,28.506 40.103,28.37 40.345,28.097 C40.233,28.049 40.131,27.991 40.062,27.9 C40.491,27.756 40.629,27.308 40.913,27.01 C40.749,27.016 40.67,26.934 40.628,26.813 C41.186,26.736 41.308,26.206 41.669,25.924 C41.612,25.753 41.22,25.932 41.195,25.727 C41.518,25.469 41.911,25.287 42.141,24.937 C41.978,24.942 41.899,24.86 41.857,24.739 C42.182,24.518 42.39,24.176 42.708,23.949 C42.492,23.976 42.353,23.925 42.331,23.751 C42.653,23.497 42.937,23.201 43.181,22.862 C42.946,22.877 42.722,22.881 42.708,22.665 C43.033,22.346 43.338,22.006 43.559,21.578 C43.417,21.562 43.211,21.614 43.181,21.48 C43.487,21.306 43.653,20.986 43.843,20.69 C43.701,20.673 43.493,20.725 43.465,20.59 C44.03,19.557 44.458,18.209 44.976,17.134 C44.207,18.361 43.238,18.789 42.424,19.899 C42.323,19.807 42.396,19.535 42.141,19.603 C41.972,19.921 41.857,20.294 41.574,20.492 C41.558,20.344 41.608,20.128 41.479,20.097 C41.251,20.55 41.03,21.01 40.723,21.381 C40.691,21.15 40.626,20.956 40.44,20.887 C40.336,21.404 40.147,21.831 39.873,22.17 C39.859,21.987 39.811,21.841 39.684,21.776 C39.506,22.117 39.458,22.594 39.21,22.862 C39.075,22.839 39.052,22.7 38.927,22.665 C38.812,23.07 38.767,23.551 38.549,23.85 C38.437,23.704 38.467,23.409 38.171,23.455 C38.195,24.106 37.766,24.283 37.698,24.838 C37.704,24.668 37.626,24.584 37.509,24.542 C37.343,24.961 37.152,25.354 36.942,25.727 C36.89,25.521 36.795,25.517 36.659,25.628 C36.672,26.037 36.633,26.391 36.47,26.616 C36.424,26.499 36.369,26.392 36.281,26.32 C36.099,26.656 36.229,27.32 35.997,27.604 C35.872,27.602 35.911,27.431 35.808,27.406 C35.71,28.211 35.436,28.224 35.241,28.887 C35.209,28.657 35.144,28.462 34.957,28.393 C34.758,29.009 34.8,29.874 34.39,30.27 C34.255,30.245 34.23,30.107 34.107,30.073 C34.095,30.228 34.07,30.369 34.037,30.502 C33.956,30.464 33.874,30.427 33.789,30.392 C33.86,30.123 34.488,29.852 34.5,29.578 C34.499,29.708 34.238,29.705 34.218,29.578 C34.243,28.782 34.849,28.068 34.785,27.504 C34.709,27.602 34.34,27.881 34.312,27.701 C34.669,27.141 34.346,26.924 34.69,26.22 C34.578,26.205 34.421,26.237 34.407,26.122 C34.69,25.826 34.737,25.282 34.973,24.937 C34.758,24.801 34.618,25.191 34.595,24.937 C34.643,24.526 34.926,24.359 34.973,23.949 C34.415,23.779 35.014,23.152 34.879,22.566 C34.702,22.472 34.563,22.862 34.5,22.566 C34.902,22.157 34.676,21.701 34.879,21.084 C34.658,21 34.472,21.43 34.407,21.184 C34.457,20.773 34.821,20.172 34.69,19.899 C34.664,19.989 34.271,20.162 34.312,19.999 C34.373,19.632 34.721,19.048 34.5,18.715 C34.489,18.792 34.188,19.014 34.218,18.813 C34.153,18.315 34.581,17.814 34.312,17.43 C34.226,17.487 33.964,17.838 33.933,17.629 C33.863,17.027 34.085,16.732 34.028,16.147 C33.792,16.016 33.733,16.537 33.65,16.245 C33.638,15.838 33.814,15.627 33.744,15.159 C33.524,15.074 33.338,15.504 33.271,15.257 C33.399,13.974 32.245,12.752 32.027,11.307 C32.032,12.339 31.787,14.16 31.46,14.171 C31.396,14.666 31.548,14.936 31.555,15.356 C31.374,15.314 31.317,15.143 31.081,15.159 C31.044,15.626 31.112,15.984 31.176,16.344 C31.036,16.292 30.938,16.197 30.798,16.147 C30.724,16.783 30.938,17.118 30.893,17.727 C30.726,17.638 30.616,17.488 30.42,17.43 C30.386,18.025 30.642,18.317 30.609,18.912 C30.469,18.86 30.371,18.766 30.231,18.715 C30.199,19.211 30.537,19.839 30.42,20.097 C30.28,20.046 30.182,19.95 30.042,19.899 C30.129,20.402 30.373,20.739 30.42,21.282 C30.185,21.298 30.128,21.127 29.947,21.084 C30.087,21.786 30.002,22.133 30.326,22.665 C30.147,22.687 30.117,22.553 29.947,22.566 C30.015,23.208 29.973,23.379 30.136,23.949 L29.853,23.949 C29.929,24.363 30.185,24.589 30.231,25.036 C30.173,25.007 29.867,24.79 29.853,25.036 C30.556,25.993 30.02,26.909 30.514,27.801 C30.232,27.799 30.193,27.544 29.947,27.504 C30.142,28.256 30.475,28.863 30.609,29.677 C30.444,29.685 30.315,29.655 30.231,29.578 C30.291,29.795 30.344,29.986 30.395,30.163 C30.295,30.189 30.196,30.217 30.099,30.247 C30.079,30.19 30.06,30.132 30.042,30.073 C29.979,30.204 30.423,30.256 30.247,30.27 C30.115,29.618 29.419,28.945 29.192,28.393 C29.096,28.524 29.102,28.76 28.908,28.789 C28.649,28.345 28.673,27.515 28.151,27.504 C28.099,27.065 28.078,26.595 27.868,26.32 C27.873,26.49 27.795,26.573 27.679,26.616 C27.567,26.271 27.664,25.71 27.395,25.529 C27.375,25.64 27.29,25.683 27.206,25.727 C27.114,25.231 26.9,24.861 26.64,24.542 C26.593,24.658 26.538,24.766 26.45,24.838 C26.413,24.218 26.137,23.848 25.883,23.455 C25.788,23.587 25.794,23.823 25.599,23.85 C25.593,23.363 25.322,23.153 25.316,22.665 C25.012,22.578 25.187,22.99 24.937,22.961 C24.855,22.487 24.704,22.086 24.465,21.776 C24.452,21.96 24.403,22.106 24.276,22.17 C24.114,21.781 23.931,21.413 23.804,20.986 C23.482,20.913 23.648,21.35 23.425,21.381 C23.19,20.936 23.016,20.426 22.669,20.097 C22.654,20.213 22.686,20.377 22.574,20.393 C22.298,20.254 22.275,19.85 22.102,19.603 C21.798,19.517 21.973,19.929 21.725,19.899 C21.033,18.878 19.987,18.102 19.172,17.233 C20.028,18.403 20.15,19.563 20.779,20.69 C20.637,20.706 20.43,20.654 20.401,20.788 C20.59,21.083 20.879,21.275 21.063,21.578 L20.684,21.578 C20.873,22.072 21.285,22.333 21.535,22.763 C21.477,22.934 21.086,22.757 21.063,22.961 C21.385,23.217 21.669,23.512 21.913,23.85 C21.855,23.988 21.549,23.865 21.535,24.047 C21.912,24.213 22.154,24.519 22.385,24.838 C22.273,24.885 22.171,24.943 22.102,25.036 C22.446,25.269 22.773,25.52 23.048,25.826 C22.812,25.811 22.588,25.807 22.574,26.023 C22.997,26.24 23.161,26.727 23.614,26.912 C23.502,26.959 23.4,27.017 23.33,27.109 C23.67,27.348 23.849,27.752 24.182,27.998 C24.019,27.993 23.939,28.075 23.898,28.196 C24.217,28.425 24.991,28.542 24.56,28.986 C24.795,29.234 25.584,29.318 25.316,29.777 C25.547,29.919 26.217,30.128 25.788,30.369 C26.021,30.456 26.333,30.457 26.355,30.763 C26.219,30.817 25.867,30.648 25.883,30.862 C26.404,31.207 27.105,31.364 27.584,31.752 C27.473,31.766 27.316,31.734 27.3,31.85 C27.417,31.915 27.528,31.981 27.637,32.048 C27.579,32.138 27.526,32.23 27.477,32.324 C27.23,32 26.96,31.701 26.64,31.456 C26.588,31.599 26.749,31.966 26.545,31.948 C26.385,31.531 25.834,31.094 25.599,31.258 C25.384,30.988 25.181,30.708 24.937,30.467 C24.892,30.585 24.836,30.692 24.749,30.763 C24.73,30.421 24.414,30.389 24.37,30.073 C24.185,30.043 24.183,30.205 24.087,30.27 C23.946,29.89 23.472,29.859 23.236,29.578 C23.221,29.695 23.252,29.859 23.142,29.874 C22.982,29.483 22.549,29.375 22.292,29.085 C22.16,29.146 22.277,29.465 22.102,29.48 C21.922,29.208 21.701,28.977 21.44,28.789 C21.425,28.905 21.457,29.069 21.346,29.085 C21.046,28.904 20.896,28.567 20.494,28.492 C20.48,28.609 20.511,28.772 20.401,28.789 C20.194,28.477 19.872,28.288 19.549,28.097 C19.534,28.244 19.583,28.461 19.455,28.492 C19.148,28.287 18.84,28.082 18.511,27.9 C18.42,28.083 18.793,28.229 18.511,28.294 C18.278,28.109 18.082,27.886 17.754,27.801 C17.737,27.948 17.788,28.165 17.66,28.196 C17.552,28.011 17.294,27.986 17.187,27.801 C16.983,27.941 16.8,27.754 16.525,27.701 C16.068,27.616 14.557,27.098 14.824,27.208 C15.433,27.804 16.45,28.146 16.525,28.789 C16.813,28.883 17.17,28.905 17.282,29.183 C17.169,29.231 17.068,29.289 16.998,29.381 C17.268,29.527 17.624,29.583 17.849,29.777 C17.736,29.824 17.634,29.882 17.565,29.974 C17.933,30.115 18.347,30.21 18.605,30.467 C18.594,30.655 18.292,30.535 18.321,30.763 C18.704,30.881 19.658,30.917 19.172,31.356 C19.469,31.473 19.885,31.467 20.117,31.653 C20.109,31.809 19.876,31.73 19.929,31.948 C20.343,31.944 20.709,31.988 20.968,32.146 C20.842,32.245 20.682,32.31 20.589,32.442 C21.075,32.477 21.504,32.82 21.818,32.738 C21.817,32.87 21.653,32.829 21.629,32.937 C22.012,32.998 22.172,33.291 22.669,33.234 C22.664,33.359 22.548,33.369 22.574,33.53 L23.425,33.53 C23.434,33.798 23.268,33.728 23.425,33.924 L24.276,33.924 C24.256,34.388 25.063,34.226 25.41,34.517 C25.204,34.499 25.109,34.597 25.127,34.813 C25.729,34.809 26.289,34.85 26.733,35.01 C26.711,35.152 26.578,35.177 26.545,35.307 C26.808,35.399 27.138,35.422 27.464,35.448 C27.493,35.505 27.524,35.561 27.557,35.616 C27.535,35.611 27.512,35.607 27.489,35.603 C27.518,36.199 26.57,35.694 26.261,35.702 C26.257,35.839 26.305,35.919 26.355,35.999 C25.645,35.958 25.418,36.347 24.749,36.097 C24.672,36.523 23.231,36.365 23.52,36.887 C23.107,36.818 22.988,37.055 22.574,36.986 C22.546,37.179 22.702,37.182 22.764,37.282 C22.16,37.36 21.446,37.68 21.44,38.073 C21.177,38.159 20.865,38.196 20.684,38.369 C20.79,38.389 20.831,38.478 20.873,38.566 C20.228,38.785 19.885,39.106 19.834,39.653 C19.213,39.993 19.128,40.224 18.904,40.65 C19.463,40.163 19.825,40.094 20.306,40.344 C20.523,40.22 20.712,39.771 20.873,40.147 C21.057,39.944 21.319,39.822 21.535,39.653 C21.549,39.769 21.518,39.934 21.629,39.949 C21.775,39.742 22.135,39.375 22.292,39.751 C22.558,39.202 23.107,39.554 23.425,39.06 C23.44,39.176 23.409,39.34 23.52,39.356 C23.657,39.104 24.023,39.092 24.182,38.863 C24.202,38.939 24.184,39.057 24.276,39.06 C25.216,38.587 26.005,38.46 26.828,37.973 C26.8,38.034 26.593,38.354 26.828,38.369 C27.05,38.073 27.435,37.95 27.774,37.777 C27.788,37.892 27.757,38.057 27.868,38.073 C28.152,37.744 28.65,37.639 29.002,37.381 C29.023,37.458 29.005,37.576 29.097,37.578 C29.188,37.503 29.326,37.395 29.483,37.309 C29.602,37.364 29.723,37.415 29.848,37.461 C28.873,37.955 28.16,38.623 27.395,39.159 C27.502,39.179 27.542,39.269 27.584,39.356 C27.041,39.414 26.91,39.903 26.64,40.245 C26.914,40.488 25.998,41.667 26.261,42.221 C26.768,41.322 27.314,40.969 28.057,40.443 L28.057,40.739 C28.441,40.778 28.348,40.318 28.624,40.245 C28.749,40.246 28.71,40.418 28.813,40.443 C28.898,40.269 29.024,40.137 29.192,40.047 C29.216,40.788 29.64,39.27 29.947,39.949 C30.021,39.565 30.246,39.339 30.42,39.06 C30.43,39.182 30.449,39.294 30.609,39.259 C30.679,38.97 30.838,38.772 30.988,38.566 C31.259,39.225 30.856,39.244 31.291,39.672 C31.294,39.085 31.69,38.906 31.838,38.467 L31.838,43.211 C32.115,43.3 32.711,43.3 32.988,43.211 C33.054,40.768 32.72,40.634 32.969,38.343 C33.001,38.34 33.034,38.336 33.065,38.332 C33.18,38.589 32.704,38.271 32.783,38.566 C33.251,38.427 33.164,39.228 33.54,39.455 C33.56,39.345 33.644,39.301 33.728,39.259 C33.874,39.533 34.014,39.814 34.202,40.047 C34.332,39.987 34.216,39.667 34.39,39.653 C34.612,39.936 34.758,40.524 35.241,40.245 C35.217,40.599 35.525,40.607 35.525,40.936 C35.71,40.965 35.712,40.803 35.808,40.739 C36.104,41.089 36.37,41.468 36.754,41.727 C36.769,41.578 36.719,41.362 36.847,41.332 C37.136,41.821 37.946,41.64 38.366,41.992 C38.344,41.203 37.044,40.586 37.604,40.147 C37.31,39.828 37.09,39.432 36.659,39.259 C36.766,39.236 36.806,39.148 36.847,39.06 C36.429,38.96 36.192,38.761 36.185,38.467 C35.606,38.481 35.576,37.921 34.957,37.973 C35.05,37.568 34.361,37.488 34.214,37.205 C34.233,37.195 34.252,37.185 34.271,37.174 C34.761,37.138 35.071,37.818 35.336,37.381 C35.699,37.798 36.004,37.715 36.47,38.073 C36.484,37.956 36.453,37.793 36.564,37.777 C36.846,38.009 37.199,38.168 37.509,38.369 C37.599,38.185 37.226,38.039 37.509,37.973 C37.851,38.274 38.564,38.605 38.927,38.467 C39.157,38.864 39.867,39.073 40.156,38.863 C40.256,39.154 40.583,39.205 40.818,39.356 C40.832,39.24 40.801,39.076 40.913,39.06 C41.182,39.576 41.683,39.288 42.046,39.751 C42.119,39.27 42.51,39.927 42.708,39.949 C42.718,39.828 42.736,39.714 42.898,39.751 C43.847,40.313 44.515,39.898 45.433,40.551 C44.928,40.016 44.599,39.994 44.504,39.356 C44.116,39.04 43.347,38.684 43.559,38.27 C43.217,38.232 42.928,38.139 42.708,37.973 C42.815,37.952 42.855,37.863 42.898,37.777 C42.586,37.74 42.175,37.806 42.234,37.381 C41.813,37.311 41.307,37.374 41.669,36.986 C41.256,37.055 41.136,36.818 40.723,36.887 C41.125,36.436 39.837,36.659 40.156,36.294 C39.904,36.295 39.616,36.256 39.494,36.393 C39.48,36.277 39.511,36.113 39.4,36.097 C38.886,36.229 37.921,36.146 37.888,35.702 C37.565,35.858 37.076,35.842 36.659,35.899 C36.663,35.774 36.78,35.763 36.754,35.603 C36.39,35.659 36.096,35.77 35.805,35.812 C35.858,35.734 35.908,35.654 35.954,35.573 C36.545,35.461 37.267,35.487 37.698,35.207 C37.579,35.167 37.506,35.081 37.509,34.913 C38.134,34.973 38.479,34.74 39.117,34.813 C39.2,34.496 38.805,34.676 38.833,34.417 C39.806,34.466 39.637,33.771 40.818,33.924 C40.708,33.509 41.107,33.481 41.669,33.53 C41.36,32.95 43.053,33.264 42.424,32.641 C42.537,32.755 42.759,32.752 42.993,32.738 C42.94,32.357 43.539,32.653 43.559,32.344 C43.475,32.314 43.146,32.077 43.37,32.048 C43.7,31.997 44.084,32.004 44.314,31.85 C44.197,31.81 44.122,31.723 44.126,31.554 C44.505,31.523 44.879,31.485 45.071,31.258 C44.965,31.237 44.924,31.149 44.882,31.059 C45.196,30.893 45.675,30.901 45.922,30.665 C45.796,30.565 45.57,30.572 45.545,30.369 C45.998,30.284 46.381,30.125 46.679,29.874 C46.516,29.88 46.437,29.799 46.394,29.677 C46.747,29.618 47.075,29.532 47.246,29.283 C47.083,29.288 47.003,29.206 46.962,29.085" id="Fill-12" fill="#4DA7BF" mask="url(#mask-2)"></path>
                <path d="M16.109,50.956 C15.024,50.129 13.985,49.216 13.012,48.219 C12.064,47.264 11.206,46.211 10.395,45.121 C9.595,44.032 8.875,42.839 8.24,41.676 C7.581,40.407 7.055,39.219 6.587,37.936 C6.143,36.658 5.766,35.366 5.503,34.062 C4.978,31.455 4.829,28.832 5.033,26.335 C5.136,25.088 5.304,23.868 5.568,22.7 C5.681,22.111 5.848,21.542 5.994,20.977 C6.122,20.562 6.244,20.149 6.379,19.746 C6.383,19.734 6.387,19.723 6.391,19.711 C6.421,19.621 6.453,19.532 6.485,19.444 C6.543,19.282 6.603,19.121 6.664,18.961 C6.674,18.935 6.684,18.909 6.693,18.883 C8.471,14.274 11.498,10.142 15.614,7.055 C15.679,7.008 15.746,6.958 15.811,6.914 C16.042,6.752 16.259,6.597 16.463,6.453 C16.675,6.319 16.874,6.192 17.059,6.075 C17.244,5.958 17.415,5.85 17.571,5.75 C17.733,5.659 17.88,5.577 18.011,5.503 C18.274,5.354 18.475,5.241 18.611,5.164 C18.743,5.087 18.823,5.05 18.823,5.05 L18.797,5.002 L16.426,0.725 C16.397,0.741 16.369,0.754 16.34,0.77 C0.918,9.319 -4.554,28.93 4.117,44.574 L7.195,42.868 C7.852,43.952 8.536,44.976 9.306,45.958 C10.197,47.074 11.133,48.146 12.157,49.111 C13.213,50.121 14.333,51.039 15.494,51.861 L16.109,50.956" id="Fill-14" fill="#FFFFFF" mask="url(#mask-2)"></path>
            </g>
            <path d="M59.769,15.778 L56.722,17.537 C56.046,16.465 55.345,15.454 54.557,14.485 C53.647,13.385 52.692,12.33 51.652,11.383 C49.793,9.666 47.751,8.223 45.637,7.088 L45.218,7.992 C47.206,9.153 49.104,10.6 50.813,12.289 C51.776,13.227 52.653,14.266 53.483,15.341 C54.302,16.416 55.043,17.596 55.698,18.748 C56.378,20.005 56.926,21.184 57.416,22.459 C57.882,23.729 58.281,25.014 58.567,26.313 C59.138,28.91 59.332,31.531 59.172,34.031 C59.091,35.279 58.944,36.502 58.701,37.675 C58.598,38.266 58.441,38.837 58.305,39.405 C58.185,39.819 58.071,40.232 57.943,40.636 C57.937,40.655 57.931,40.674 57.924,40.694 C57.897,40.778 57.869,40.862 57.841,40.946 C57.786,41.106 57.73,41.265 57.673,41.424 C57.662,41.453 57.652,41.483 57.641,41.512 C55.943,46.152 52.988,50.336 48.927,53.494 C48.863,53.542 48.798,53.592 48.735,53.636 C48.507,53.803 48.293,53.961 48.09,54.109 C47.881,54.247 47.684,54.377 47.502,54.497 C47.319,54.617 47.15,54.729 46.995,54.831 C46.835,54.925 46.689,55.01 46.559,55.086 C46.3,55.239 46.1,55.356 45.966,55.435 C45.835,55.515 45.755,55.553 45.755,55.553 L45.782,55.6 L48.228,59.836 C48.256,59.82 48.285,59.805 48.313,59.789 C63.583,50.973 68.713,31.269 59.769,15.778" id="Fill-16" fill="#FFFFFF"></path>
            <polyline id="Fill-17" fill="#FFFFFF" points="73.066 5.946 78.787 5.946 82.737 17.13 82.786 17.13 86.761 5.946 92.457 5.946 92.457 23.086 88.676 23.086 88.676 9.94 88.627 9.94 84.119 23.086 81.235 23.086 76.896 9.94 76.848 9.94 76.848 23.086 73.066 23.086 73.066 5.946"></polyline>
            <path d="M103.052,10.933 L100.967,16.259 L105.16,16.259 L103.052,10.933 L103.052,10.933 Z M101.597,5.946 L104.724,5.946 L112.189,23.086 L107.923,23.086 L106.445,19.454 L99.78,19.454 L98.35,23.086 L94.181,23.086 L101.597,5.946 L101.597,5.946 Z" id="Fill-18" fill="#FFFFFF"></path>
            <path d="M118.337,13.039 L120.567,13.039 C121.949,13.039 123.742,12.991 123.742,11.127 C123.742,9.408 122.191,9.142 120.809,9.142 L118.337,9.142 L118.337,13.039 L118.337,13.039 Z M114.556,5.946 L121.197,5.946 C124.712,5.946 127.669,7.156 127.669,11.151 C127.669,13.548 126.384,15.411 123.96,15.847 L128.323,23.086 L123.791,23.086 L120.203,16.234 L118.337,16.234 L118.337,23.086 L114.556,23.086 L114.556,5.946 L114.556,5.946 Z" id="Fill-19" fill="#FFFFFF"></path>
            <polygon id="Fill-20" fill="#FFFFFF" points="130.859 23.085 134.64 23.085 134.64 5.946 130.859 5.946"></polygon>
            <path d="M147.598,17.348 C147.598,20.52 146.774,23.521 142.12,23.521 C139.405,23.521 137.418,22.263 136.86,19.527 L140.326,18.68 C140.423,19.503 141.199,20.181 142.023,20.181 C143.793,20.181 143.817,18.22 143.817,16.937 L143.817,5.946 L147.598,5.946 L147.598,17.348" id="Fill-21" fill="#FFFFFF"></path>
            <path d="M165.317,16.477 C165.317,20.52 162.845,23.521 158.095,23.521 C153.32,23.521 150.847,20.52 150.847,16.477 L150.847,5.946 L154.629,5.946 L154.629,16.332 C154.629,18.438 156.083,20.035 158.095,20.035 C160.082,20.035 161.536,18.438 161.536,16.332 L161.536,5.946 L165.317,5.946 L165.317,16.477" id="Fill-22" fill="#FFFFFF"></path>
            <path d="M175.912,10.933 L173.827,16.259 L178.02,16.259 L175.912,10.933 L175.912,10.933 Z M174.457,5.946 L177.584,5.946 L185.049,23.086 L180.783,23.086 L179.305,19.454 L172.64,19.454 L171.21,23.086 L167.041,23.086 L174.457,5.946 L174.457,5.946 Z" id="Fill-23" fill="#FFFFFF"></path>
            <polyline id="Fill-24" fill="#FFFFFF" points="186.773 5.946 191.911 5.946 199.206 17.857 199.255 17.857 199.255 5.946 203.036 5.946 203.036 23.086 198.092 23.086 190.603 10.885 190.554 10.885 190.554 23.086 186.773 23.086 186.773 5.946"></polyline>
            <path d="M213.631,10.933 L211.547,16.259 L215.739,16.259 L213.631,10.933 L213.631,10.933 Z M212.176,5.946 L215.303,5.946 L222.769,23.086 L218.503,23.086 L217.024,19.454 L210.359,19.454 L208.929,23.086 L204.759,23.086 L212.176,5.946 L212.176,5.946 Z" id="Fill-25" fill="#FFFFFF"></path>
            <polyline id="Fill-26" fill="#FFFFFF" points="72.929 30.165 90.207 30.165 90.207 35.399 78.603 35.399 78.603 40.632 89.334 40.632 89.334 45.865 78.603 45.865 78.603 55.895 72.929 55.895 72.929 30.165"></polyline>
            <path d="M102.935,37.652 L99.807,45.647 L106.099,45.647 L102.935,37.652 L102.935,37.652 Z M100.753,30.165 L105.445,30.165 L116.648,55.895 L110.246,55.895 L108.027,50.444 L98.025,50.444 L95.878,55.895 L89.622,55.895 L100.753,30.165 L100.753,30.165 Z" id="Fill-27" fill="#FFFFFF"></path>
            <path d="M135.003,36.852 C133.876,35.508 132.239,34.744 130.129,34.744 C125.837,34.744 122.672,38.233 122.672,43.03 C122.672,47.827 125.837,51.316 129.947,51.316 C132.239,51.316 134.094,50.299 135.258,48.554 L139.986,52.079 C137.84,55.132 134.203,56.549 130.675,56.549 C122.636,56.549 116.78,51.28 116.78,43.03 C116.78,34.781 122.636,29.511 130.675,29.511 C133.548,29.511 137.186,30.493 139.368,33.291 L135.003,36.852" id="Fill-28" fill="#FFFFFF"></path>
            <polyline id="Fill-29" fill="#FFFFFF" points="149.657 35.18 142.31 35.18 142.31 30.165 162.679 30.165 162.679 35.18 155.332 35.18 155.332 55.895 149.657 55.895 149.657 35.18"></polyline>
            <path d="M181.858,36.852 C180.731,35.508 179.094,34.744 176.984,34.744 C172.692,34.744 169.528,38.233 169.528,43.03 C169.528,47.827 172.692,51.316 176.802,51.316 C179.094,51.316 180.949,50.299 182.113,48.554 L186.842,52.079 C184.695,55.132 181.058,56.549 177.53,56.549 C169.491,56.549 163.635,51.28 163.635,43.03 C163.635,34.781 169.491,29.511 177.53,29.511 C180.403,29.511 184.041,30.493 186.223,33.291 L181.858,36.852" id="Fill-30" fill="#FFFFFF"></path>
            <polyline id="Fill-31" fill="#FFFFFF" points="189.93 30.165 195.604 30.165 195.604 39.76 206.626 39.76 206.626 30.165 212.3 30.165 212.3 55.895 206.626 55.895 206.626 44.775 195.604 44.775 195.604 55.895 189.93 55.895 189.93 30.165"></polyline>
            <polyline id="Fill-32" fill="#FFFFFF" points="217.753 30.165 235.248 30.165 235.248 35.399 223.427 35.399 223.427 40.196 234.594 40.196 234.594 45.429 223.427 45.429 223.427 50.662 235.903 50.662 235.903 55.895 217.753 55.895 217.753 30.165"></polyline>
            <path d="M257.288,36.852 C256.161,35.508 254.524,34.744 252.415,34.744 C248.122,34.744 244.958,38.233 244.958,43.03 C244.958,47.827 248.122,51.316 252.233,51.316 C254.524,51.316 256.379,50.299 257.543,48.554 L262.271,52.079 C260.126,55.132 256.488,56.549 252.96,56.549 C244.922,56.549 239.065,51.28 239.065,43.03 C239.065,34.781 244.922,29.511 252.96,29.511 C255.833,29.511 259.471,30.493 261.653,33.291 L257.288,36.852" id="Fill-33" fill="#FFFFFF"></path>
            <polyline id="Fill-34" fill="#FFFFFF" points="265.579 30.165 271.253 30.165 271.253 40.85 281.256 30.165 288.676 30.165 277.219 42.122 289.658 55.895 281.729 55.895 271.253 43.684 271.253 55.895 265.579 55.895 265.579 30.165"></polyline>
        </g>
    </g>
</svg>